HIERARCHY
ROOT Hips
{
	OFFSET 0.000000 0.000000 0.000000
	CHANNELS 6 Xposition Yposition Zposition Xrotation Yrotation Zrotation
	JOINT LeftUpLeg_virtual
	{
		OFFSET 0.000000 0.000000 0.000000
		CHANNELS 3 Xrotation Yrotation Zrotation
		JOINT LeftUpLeg
		{
			OFFSET 10.205400 -3.823500 0.155100
			CHANNELS 3 Xrotation Yrotation Zrotation
			JOINT LeftLeg
			{
				OFFSET 0.708757 -12.982077 0.567790
				CHANNELS 3 Xrotation Yrotation Zrotation
				JOINT LeftFoot
				{
					OFFSET -0.708756 -10.717838 -2.184338
					CHANNELS 3 Xrotation Yrotation Zrotation
					JOINT LeftToeBase
					{
						OFFSET 0.108149 -7.191104 7.560241
						CHANNELS 3 Xrotation Yrotation Zrotation
						JOINT LeftToe_End
						{
							OFFSET 0.070230 0.081724 4.490308
							CHANNELS 3 Xrotation Yrotation Zrotation
							End Site
							{
								OFFSET 0 0 0
							}
						}
					}
				}
			}
		}
	}
	JOINT RightUpLeg_virtual
	{
		OFFSET 0.000000 0.000000 0.000000
		CHANNELS 3 Xrotation Yrotation Zrotation
		JOINT RightUpLeg
		{
			OFFSET -10.205400 -3.823500 0.005500
			CHANNELS 3 Xrotation Yrotation Zrotation
			JOINT RightLeg
			{
				OFFSET -0.708756 -12.982134 0.610632
				CHANNELS 3 Xrotation Yrotation Zrotation
				JOINT RightFoot
				{
					OFFSET 0.708754 -10.717769 -1.945823
					CHANNELS 3 Xrotation Yrotation Zrotation
					JOINT RightToeBase
					{
						OFFSET -0.108140 -7.191069 7.372968
						CHANNELS 3 Xrotation Yrotation Zrotation
						JOINT RightToe_End
						{
							OFFSET -0.070227 0.081735 4.479403
							CHANNELS 3 Xrotation Yrotation Zrotation
							End Site
							{
								OFFSET 0 0 0
							}
						}
					}
				}
			}
		}
	}
	JOINT Spine_virtual
	{
		OFFSET 0.000000 0.000000 0.000000
		CHANNELS 3 Xrotation Yrotation Zrotation
		JOINT Spine
		{
			OFFSET 0.000000 6.876099 0.125700
			CHANNELS 3 Xrotation Yrotation Zrotation
			JOINT Spine1
			{
				OFFSET 0.000000 5.730043 0.104720
				CHANNELS 3 Xrotation Yrotation Zrotation
				JOINT Spine1_split
				{
					OFFSET 0.000000 5.730043 0.104720
					CHANNELS 3 Xrotation Yrotation Zrotation
					JOINT Spine2
					{
						OFFSET 0.000000 5.730043 0.104720
						CHANNELS 3 Xrotation Yrotation Zrotation
						JOINT Neck_virtual
						{
							OFFSET 0.000000 0.000000 0.000000
							CHANNELS 3 Xrotation Yrotation Zrotation
							JOINT Neck
							{
								OFFSET 0.000000 10.314075 0.188496
								CHANNELS 3 Xrotation Yrotation Zrotation
								JOINT Head
								{
									OFFSET 0.000000 7.643700 -2.377400
									CHANNELS 3 Xrotation Yrotation Zrotation
									JOINT HeadTop_End
									{
										OFFSET 0.000000 43.788605 -13.619600
										CHANNELS 3 Xrotation Yrotation Zrotation
										End Site
										{
											OFFSET 0 0 0
										}
									}
								}
							}
						}
						JOINT LeftShoulder_virtual
						{
							OFFSET 0.000000 0.000000 0.000000
							CHANNELS 3 Xrotation Yrotation Zrotation
							JOINT LeftShoulder
							{
								OFFSET 2.196100 4.412489 0.087492
								CHANNELS 3 Xrotation Yrotation Zrotation
								JOINT LeftShoulder_split
								{
									OFFSET 2.196100 4.412489 0.087492
									CHANNELS 3 Xrotation Yrotation Zrotation
									JOINT LeftArm
									{
										OFFSET 8.771219 -2.981674 -0.026999
										CHANNELS 3 Xrotation Yrotation Zrotation
										JOINT LeftForeArm
										{
											OFFSET 8.512804 0.000000 -0.000000
											CHANNELS 3 Xrotation Yrotation Zrotation
											JOINT LeftHand
											{
												OFFSET 18.484802 0.000000 -0.000000
												CHANNELS 3 Xrotation Yrotation Zrotation
												End Site
												{
													OFFSET 0 0 0
												}
											}
										}
									}
								}
							}
						}
						JOINT RightShoulder_virtual
						{
							OFFSET 0.000000 0.000000 0.000000
							CHANNELS 3 Xrotation Yrotation Zrotation
							JOINT RightShoulder
							{
								OFFSET -2.196100 4.412496 0.070690
								CHANNELS 3 Xrotation Yrotation Zrotation
								JOINT RightShoulder_split
								{
									OFFSET -2.196100 4.412496 0.070690
									CHANNELS 3 Xrotation Yrotation Zrotation
									JOINT RightArm
									{
										OFFSET -8.771282 -2.981682 -0.094208
										CHANNELS 3 Xrotation Yrotation Zrotation
										JOINT RightForeArm
										{
											OFFSET -8.494598 0.000000 0.000000
											CHANNELS 3 Xrotation Yrotation Zrotation
											JOINT RightHand
											{
												OFFSET -18.483803 0.000000 0.000001
												CHANNELS 3 Xrotation Yrotation Zrotation
												End Site
												{
													OFFSET 0 0 0
												}
											}
										}
									}
								}
							}
						}
					}
				}
			}
		}
	}
}
MOTION
Frames: 11
Frame Time: 0.03333333
0.122036 27.226719 -2.084088 0.000000 0.000000 0.000000 -3.514708 -49.692802 3.492953 -22.605104 -0.798267 13.862153 59.067169 -3.369673 1.912203 -32.048057 10.613651 -15.025269 -1.737674 -0.843984 -8.402088 0.000000 0.000000 0.000000 -3.896578 -49.652924 3.674868 -31.045617 -15.866149 -34.753273 64.831971 13.307910 -9.717829 -29.869251 -36.977545 44.475337 6.723888 7.415290 -22.824937 0.000000 0.000000 0.000000 -3.937470 -45.118932 1.612625 13.845892 3.574203 -3.500010 -2.174660 -0.569049 -1.253168 0.058339 -0.251064 0.299787 0.000000 0.000000 0.000000 1.211908 1.104025 0.220092 9.436332 11.310858 0.212750 -10.996493 11.441854 -8.508417 0.000000 0.000000 0.000000 3.897566 -0.390077 0.233585 2.665395 6.610053 0.428747 -4.100920 -9.472554 -3.528713 -63.310389 2.454154 -48.344810 177.175175 -80.796767 173.461233 0.000000 0.000000 0.000000 2.420635 -0.664951 -0.153325 -1.982240 12.942203 -5.965102 -4.212418 -8.076078 4.239987 -52.959299 26.750888 85.524801 -123.617531 76.224856 130.616084 0.000000 0.000000 0.000000 
0.241795 26.976698 -1.528746 0.000000 0.000000 0.000000 -4.108372 -51.479170 3.288919 -24.515651 -0.966530 14.238437 60.473238 -3.084905 1.067680 -31.104613 11.800558 -14.770339 -2.190113 -0.644820 -9.112967 0.000000 0.000000 0.000000 -4.030813 -50.780995 3.683223 -30.813278 -15.103394 -35.351884 67.144311 13.644358 -10.000681 -31.911689 -37.115490 43.216837 8.983345 6.847639 -22.568608 0.000000 0.000000 0.000000 -4.389302 -46.053483 1.434592 14.308312 3.930493 -3.569919 -1.816544 -0.544628 -1.255207 0.037438 -0.267558 0.351393 0.000000 0.000000 0.000000 1.265348 1.053841 0.334701 9.103208 11.371252 0.691598 -12.035474 11.788906 -9.313487 0.000000 0.000000 0.000000 3.528225 -0.304370 0.161804 2.150113 6.658651 -0.321954 -3.187796 -11.660810 -1.840997 -64.408554 2.604551 -48.242938 170.293446 -81.040242 166.096991 0.000000 0.000000 0.000000 2.448532 -0.642076 -0.182659 -2.278517 13.057293 -5.788819 -2.397294 -7.544548 4.417292 -52.999802 28.115958 85.542054 -128.871777 75.071579 136.196581 0.000000 0.000000 0.000000 
0.412365 26.322487 -0.800817 0.000000 0.000000 0.000000 -4.690660 -53.313762 3.009192 -29.005563 -1.329349 15.999585 66.074915 -5.095801 0.220766 -28.885574 11.056847 -16.231308 -2.767657 -0.799179 -9.333803 0.000000 0.000000 0.000000 -4.036179 -52.374365 3.727939 -30.786617 -14.006565 -36.700819 69.763696 14.347109 -11.020964 -33.420532 -37.327137 43.511700 8.375105 6.833238 -22.213249 0.000000 0.000000 0.000000 -4.649097 -47.846561 1.372434 15.129989 4.970625 -3.070719 -1.355106 -0.451241 -1.320471 -0.023332 -0.203546 0.278267 0.000000 0.000000 0.000000 1.629631 1.051698 0.401308 8.336355 11.585640 1.223951 -13.891004 13.114166 -10.710856 0.000000 0.000000 0.000000 3.250789 -0.210838 0.028216 1.755564 6.168757 -1.423830 -1.408523 -11.949198 0.080806 -66.060893 3.100748 -47.273440 163.748444 -81.974148 158.455471 0.000000 0.000000 0.000000 2.262698 -0.619678 -0.179838 -2.648961 13.336329 -5.744275 -2.332453 -6.700606 3.967138 -51.275077 28.818412 84.484365 -135.203950 73.125276 142.462201 0.000000 0.000000 0.000000 
0.620706 25.358286 -0.002703 0.000000 0.000000 0.000000 -5.070858 -54.915947 2.795923 -35.349361 -2.102052 19.032933 74.645710 -9.259030 0.159906 -24.914766 8.338250 -19.655468 -5.548492 -1.225400 -8.462174 0.000000 0.000000 0.000000 -3.958353 -54.270610 3.717561 -31.228865 -12.580725 -38.665950 71.952416 15.524603 -12.534874 -34.099098 -37.390849 45.128873 5.251068 7.299550 -22.017207 0.000000 0.000000 0.000000 -4.820298 -50.197020 1.284693 16.190209 6.553301 -2.135015 -0.823014 -0.260145 -1.516834 0.002306 -0.110203 0.149772 0.000000 0.000000 0.000000 2.247449 1.137002 0.356595 7.195831 11.941100 1.734893 -16.430611 15.446555 -12.398065 0.000000 0.000000 0.000000 3.087723 -0.075982 -0.227724 1.584474 5.460530 -2.741049 0.696438 -10.547560 1.692642 -67.246935 4.786887 -45.091717 160.328855 -82.622408 153.717874 0.000000 0.000000 0.000000 1.974797 -0.550873 -0.240231 -3.091861 13.709748 -5.964779 -3.617844 -5.392887 3.093217 -48.261997 28.584248 82.781524 -139.538538 71.225001 146.302119 0.000000 0.000000 0.000000 
0.897310 24.244965 0.918221 0.000000 0.000000 0.000000 -5.138995 -56.449929 2.739894 -41.737848 -3.152873 22.733769 83.250696 -13.650623 0.880575 -21.485671 4.596241 -22.467175 -11.149924 -1.989739 -6.593874 0.000000 0.000000 0.000000 -3.668736 -56.393542 3.803343 -32.446322 -10.745969 -41.163641 73.569600 17.217403 -14.196836 -34.154508 -37.090284 47.514392 2.617138 7.751709 -22.365596 0.000000 0.000000 0.000000 -4.780448 -52.821794 1.363547 17.371720 8.249678 -1.000252 -0.291493 0.012688 -1.865572 0.062467 -0.095015 0.046771 0.000000 0.000000 0.000000 3.031816 1.328060 0.143387 5.907157 12.409394 2.204025 -19.090551 18.474419 -14.129517 0.000000 0.000000 0.000000 3.023962 0.117560 -0.675881 1.567651 4.657923 -4.184314 2.221606 -9.251466 3.806531 -66.887954 8.709625 -41.337504 162.943984 -81.212110 155.123787 0.000000 0.000000 0.000000 1.728014 -0.374075 -0.418333 -3.662279 14.141139 -6.624042 -5.403083 -3.991394 2.243932 -44.890568 27.815773 81.190459 -141.744443 70.161793 147.661600 0.000000 0.000000 0.000000 
1.161160 23.188921 2.000439 0.000000 0.000000 0.000000 -4.765572 -57.903366 2.948925 -47.080368 -4.352766 27.026884 89.907529 -17.013998 1.960601 -18.861101 1.659999 -24.523289 -16.517937 -2.939034 -5.067883 0.000000 0.000000 0.000000 -3.402093 -58.505495 3.867924 -34.573714 -8.534990 -44.150244 74.720337 19.402496 -15.516252 -33.359399 -36.330698 50.338747 2.204999 7.963094 -23.528461 0.000000 0.000000 0.000000 -4.402611 -55.365684 1.714494 18.422842 9.622696 0.082345 0.180430 0.339895 -2.273791 0.078771 -0.217371 -0.063118 0.000000 0.000000 0.000000 3.865381 1.584745 -0.206434 4.793339 12.927163 2.638116 -21.456561 21.996112 -15.715987 0.000000 0.000000 0.000000 2.968401 0.370109 -1.295504 1.624494 3.931808 -5.578017 2.689737 -8.443278 5.867703 -65.614117 14.522908 -37.123506 166.201575 -76.842620 157.454507 0.000000 0.000000 0.000000 1.682442 -0.089172 -0.680930 -4.375042 14.407307 -7.612640 -7.280139 -3.458401 1.632844 -41.980651 27.481714 80.741141 -142.530325 70.234152 147.455233 0.000000 0.000000 0.000000 
1.307045 22.323048 3.298617 0.000000 0.000000 0.000000 -3.813926 -59.764633 3.425276 -50.781401 -5.804273 31.483982 93.478283 -18.978507 3.221296 -15.880750 0.624890 -27.161717 -19.657950 -3.716853 -4.184529 0.000000 0.000000 0.000000 -3.237523 -59.967777 3.747245 -37.508114 -6.047899 -47.867718 75.659132 22.369074 -16.143007 -30.616934 -34.613985 54.496618 3.835716 7.941779 -25.516629 0.000000 0.000000 0.000000 -3.892010 -57.547499 2.048185 19.072668 10.176202 0.957978 0.518091 0.608947 -2.545479 0.091589 -0.325658 -0.078959 0.000000 0.000000 0.000000 4.613566 1.799316 -0.563280 3.991177 13.560736 3.061169 -23.033611 25.634704 -17.294999 0.000000 0.000000 0.000000 2.915432 0.591583 -1.929968 1.609588 3.419747 -6.787197 1.873063 -8.330274 7.189951 -64.539359 21.130350 -33.295413 165.281139 -70.525555 156.131595 0.000000 0.000000 0.000000 1.926904 0.234640 -0.858755 -5.194690 14.215632 -8.680011 -8.620646 -3.791879 1.421058 -39.920796 28.443589 81.257388 -143.832255 70.803913 147.921202 0.000000 0.000000 0.000000 
1.393341 21.768188 4.770829 0.000000 0.000000 0.000000 -2.856411 -61.518462 3.549180 -51.986230 -7.027197 35.799494 92.854147 -19.135912 3.979395 -12.660248 1.975344 -29.614290 -19.523734 -4.198734 -3.750389 0.000000 0.000000 0.000000 -3.390314 -60.590157 3.173552 -40.372073 -3.648381 -51.925827 76.068520 25.810783 -15.976909 -26.528728 -31.759925 58.596425 6.979870 7.783824 -27.801438 0.000000 0.000000 0.000000 -3.257151 -58.925531 2.281901 19.129606 9.563750 1.494695 0.725066 0.648581 -2.458157 0.062622 -0.396714 0.058053 0.000000 0.000000 0.000000 5.132647 1.816087 -0.723332 3.527411 14.352570 3.488178 -23.040759 29.299688 -19.135248 0.000000 0.000000 0.000000 2.902644 0.594382 -2.310239 1.433861 3.128458 -7.462246 1.759543 -8.472016 7.910413 -64.560417 26.439538 -30.488547 159.500599 -65.392948 150.188183 0.000000 0.000000 0.000000 2.339323 0.422479 -0.739969 -6.162683 13.345307 -9.340042 -8.678537 -4.341806 1.500591 -38.855201 31.146479 82.182967 -148.041208 70.960434 151.609518 0.000000 0.000000 0.000000 
1.519611 21.528694 6.369431 0.000000 0.000000 0.000000 -2.625289 -62.303203 2.629810 -51.354854 -7.872972 39.718872 88.318779 -17.693013 4.381556 -9.301358 5.206848 -31.850275 -16.523227 -4.418533 -3.420009 0.000000 0.000000 0.000000 -3.918520 -60.633939 1.914586 -41.358916 -2.439234 -55.044471 73.894341 28.530296 -14.587477 -23.881009 -29.560840 58.467464 8.556736 8.248073 -29.634159 0.000000 0.000000 0.000000 -2.528157 -59.290932 2.137766 18.469701 7.657836 1.596445 0.915012 0.322956 -1.844616 0.116450 -0.350845 0.209531 0.000000 0.000000 0.000000 5.304687 1.514712 -0.468948 3.209806 15.269503 3.933794 -20.883418 32.826121 -21.687727 0.000000 0.000000 0.000000 3.028407 0.183403 -2.175668 1.092937 2.583823 -7.265780 3.246397 -8.210212 8.260530 -65.710320 28.980793 -28.847304 146.068759 -64.553566 136.590014 0.000000 0.000000 0.000000 2.904762 0.286843 -0.160922 -7.087223 11.753556 -9.477680 -7.698475 -4.515769 1.986246 -37.510385 35.492272 82.285236 -154.833026 70.565573 158.114863 0.000000 0.000000 0.000000 
1.676192 21.489395 8.195049 0.000000 0.000000 0.000000 -2.815719 -62.187192 0.917471 -50.374496 -8.887451 42.888991 80.978654 -15.431052 4.900284 -5.587910 8.623464 -34.441837 -12.042067 -4.510079 -2.797138 0.000000 0.000000 0.000000 -3.888240 -59.524450 0.654371 -39.893584 -2.756433 -56.675411 68.672429 30.224314 -11.864327 -22.222123 -28.667281 54.580882 5.978830 9.866187 -29.942074 0.000000 0.000000 0.000000 -2.022049 -58.324276 1.317097 17.226574 4.591400 1.087898 1.023119 -0.445231 -0.677745 0.215118 -0.251137 0.318824 0.000000 0.000000 0.000000 5.151742 0.842311 0.340678 2.699373 16.245146 4.521702 -16.294536 35.905676 -25.337553 0.000000 0.000000 0.000000 3.405444 -0.701529 -1.338771 0.773964 1.549884 -6.160348 5.028823 -7.143406 8.015694 -67.056878 28.414229 -28.287908 115.574669 -66.610942 105.984073 0.000000 0.000000 0.000000 3.557258 -0.278329 0.932280 -7.739317 9.480250 -9.194872 -6.483912 -4.134352 2.229590 -33.939767 40.053636 79.681643 -162.236718 70.333777 165.255935 0.000000 0.000000 0.000000 
1.868560 21.516241 10.192622 0.000000 0.000000 0.000000 -3.352052 -60.611843 -1.219626 -50.957699 -10.522659 45.035406 73.183510 -13.403056 5.726938 -0.867854 10.236356 -38.044734 -6.769093 -4.438648 -2.125518 0.000000 0.000000 0.000000 -3.919349 -57.352764 -0.777282 -37.405425 -3.333088 -57.570428 63.550197 31.471019 -8.639832 -17.512129 -27.607042 49.609317 2.704804 11.370560 -27.129088 0.000000 0.000000 0.000000 -1.800465 -55.826831 -0.065670 15.695186 0.960958 -0.249619 1.108397 -1.544832 0.835282 0.252225 -0.230637 0.372786 0.000000 0.000000 0.000000 4.780086 -0.101759 1.660897 1.735288 17.118942 5.391486 -9.691576 38.115867 -30.010591 0.000000 0.000000 0.000000 3.965732 -1.880428 0.170086 0.573802 0.091050 -4.369429 5.792702 -5.405694 6.468316 -67.832084 24.866530 -29.178247 71.426007 -60.992421 62.068135 0.000000 0.000000 0.000000 4.092185 -1.253078 2.334231 -8.019605 6.856037 -8.509219 -5.385875 -2.631647 1.696687 -26.696457 42.682218 73.987915 -169.842107 70.652262 172.184097 0.000000 0.000000 0.000000 
